<svg xmlns="http://www.w3.org/2000/svg" width="24" height="24" viewBox="0 0 24 24">
    <g fill="none">
        <path d="M0 0L24 0 24 24 0 24z"/>
        <g>
            <path fill="#FFC107" d="M19.805 8.041H19V8h-9v4h5.652c-.825 2.329-3.04 4-5.652 4-3.314 0-6-2.687-6-6 0-3.314 2.686-6 6-6 1.53 0 2.921.577 3.98 1.52L16.81 2.69C15.023 1.027 12.634 0 10 0 4.478 0 0 4.478 0 10c0 5.523 4.478 10 10 10 5.523 0 10-4.477 10-10 0-.67-.069-1.325-.195-1.959z" transform="translate(2 2)"/>
            <path fill="#FF3D00" d="M1.153 5.346L4.44 7.755C5.328 5.554 7.48 4 10 4c1.53 0 2.921.577 3.98 1.52l2.83-2.829C15.022 1.027 12.633 0 10 0 6.16 0 2.828 2.168 1.153 5.346z" transform="translate(2 2)"/>
            <path fill="#4CAF50" d="M10 20c2.583 0 4.93-.988 6.704-2.596l-3.095-2.619c-1.037.79-2.305 1.216-3.61 1.215-2.6 0-4.809-1.658-5.64-3.973L1.096 14.54C2.752 17.778 6.113 20 10 20z" transform="translate(2 2)"/>
            <path fill="#1976D2" d="M19.805 8.041H19V8h-9v4h5.652c-.395 1.108-1.105 2.077-2.044 2.786l.002-.002 3.095 2.62C16.485 17.602 20 15 20 10c0-.67-.069-1.325-.195-1.959z" transform="translate(2 2)"/>
        </g>
    </g>
</svg>
